<svg width="80" height="80" viewBox="0 0 80 80" fill="none" xmlns="http://www.w3.org/2000/svg">
<g opacity="0.03">
<path d="M39.9998 74.1792C59.852 74.1792 75.9454 72.1663 75.9454 69.6832C75.9454 67.2001 59.852 65.1872 39.9998 65.1872C20.1476 65.1872 4.0542 67.2001 4.0542 69.6832C4.0542 72.1663 20.1476 74.1792 39.9998 74.1792Z" fill="#000001"/>
</g>
<path d="M17.5694 13.6096C11.2782 16.6384 8.41902 24.5392 7.81102 33.112C7.29902 40.336 9.70062 51.9968 20.8782 53.8352C42.6302 57.4128 65.5918 57.9776 70.2942 45.8912C74.9966 33.8032 74.323 15.0064 58.715 8.72963C50.571 5.45443 29.8574 7.69443 17.5694 13.6096Z" fill="#FBF8E9"/>
<g opacity="0.58">
<path d="M12.3808 65.9183C12.3808 65.9183 8.97762 64.9887 8.23682 61.8207C8.23682 61.8207 13.5104 60.7551 13.6592 66.1983L12.3792 65.9183H12.3808Z" fill="#FF9E1B"/>
</g>
<g opacity="0.73">
<path d="M12.7983 65.5807C12.7983 65.5807 10.4207 61.8223 12.5135 58.3071C12.5135 58.3071 16.5231 60.8527 14.7407 65.5887L12.7983 65.5807Z" fill="#FF9E1B"/>
</g>
<path d="M13.4111 65.584C13.4111 65.584 14.6671 61.6144 18.4655 60.8624C18.4655 60.8624 19.1775 63.44 16.0063 65.5952L13.4111 65.584Z" fill="#FF9E1B"/>
<path d="M10.9424 65.4944L11.632 70.2144L15.9776 70.232L16.6176 65.5184L10.9424 65.4944Z" fill="#24285B"/>
<path d="M60.3217 15.6434C64.3654 15.6434 67.6434 12.3654 67.6434 8.32172C67.6434 4.27805 64.3654 1 60.3217 1C56.278 1 53 4.27805 53 8.32172C53 12.3654 56.278 15.6434 60.3217 15.6434Z" fill="#FFD200"/>
<g opacity="0.46">
<path d="M61.9694 10.9723C64.0348 10.9723 65.7092 9.29787 65.7092 7.23239C65.7092 5.16692 64.0348 3.49252 61.9694 3.49252C59.9039 3.49252 58.2295 5.16692 58.2295 7.23239C58.2295 9.29787 59.9039 10.9723 61.9694 10.9723Z" fill="white"/>
</g>
<g opacity="0.46">
<path d="M63.2275 8.73257C64.3574 8.73257 65.2734 7.81661 65.2734 6.68671C65.2734 5.5568 64.3574 4.64084 63.2275 4.64084C62.0976 4.64084 61.1816 5.5568 61.1816 6.68671C61.1816 7.81661 62.0976 8.73257 63.2275 8.73257Z" fill="white"/>
</g>
<path d="M64.5869 14.2339H56.0537V20.8961H64.5869V14.2339Z" fill="#24285B"/>
<path d="M62.3212 20.894H58.2295V23.5657H62.3212V20.894Z" fill="#24285B"/>
<g opacity="0.75">
<path d="M62.3212 20.894H58.2295V23.5657H62.3212V20.894Z" fill="white"/>
</g>
<path d="M45.4303 22.3712C45.4303 22.3712 51.5151 27.192 52.6831 36.072C53.8511 44.952 65.1407 38.2784 68.3839 28.5456L71.4975 30.6224C71.4975 30.6224 66.7087 47.1968 52.6815 47.88C38.6543 48.5648 33.6351 26.0576 45.4287 22.3712H45.4303Z" fill="#FF9E1B"/>
<g opacity="0.46">
<path d="M45.4303 22.3712C45.4303 22.3712 51.5151 27.192 52.6831 36.072C53.8511 44.952 65.1407 38.2784 68.3839 28.5456L71.4975 30.6224C71.4975 30.6224 66.7087 47.1968 52.6815 47.88C38.6543 48.5648 33.6351 26.0576 45.4287 22.3712H45.4303Z" fill="white"/>
</g>
<path d="M40.6929 9.99847C40.6929 9.99847 41.6353 11.7537 41.8481 13.0977C41.9345 13.6433 41.5569 14.1633 41.0113 14.2417C40.3329 14.3393 39.3873 14.2753 38.7681 13.3969L37.5345 12.0337C37.5345 12.0337 36.7921 11.1521 37.5041 9.96807C38.2161 8.78247 40.1729 8.90087 40.6929 10.0001V9.99847Z" fill="#F4A28C"/>
<path d="M38.451 12.2864L36.8862 18.6224L40.4398 19.2352L40.1582 14.5008L38.451 12.2864Z" fill="#F4A28C"/>
<path d="M41.229 11.1344L42.0418 11.6208C42.2418 11.7408 42.2498 12.0288 42.0562 12.16L41.413 12.592L41.229 11.136V11.1344Z" fill="#F4A28C"/>
<g opacity="0.31">
<path d="M40.1775 14.2496C40.1775 14.2496 38.8735 13.9696 38.4399 13.56C38.4399 13.56 38.5631 16.528 40.3023 16.9136L40.1775 14.2496Z" fill="#CE8172"/>
</g>
<path d="M37.8687 11.6897C37.8687 11.6897 36.7999 11.3441 36.6175 12.1745C36.4351 13.0033 37.6223 13.3553 38.2335 12.7361C38.2335 12.7361 37.8479 12.3169 37.8671 11.6897H37.8687Z" fill="#F4A28C"/>
<path d="M23.3182 70.7008H46.395V54.2096H23.3182L23.3182 70.7008Z" fill="#E6E6E6"/>
<g opacity="0.08">
<path d="M40.3042 70.7008L41.4146 56.1824L46.0434 56.8864L46.3746 61.2928L46.397 70.7008H40.3042Z" fill="#000001"/>
</g>
<path d="M40.8848 68.7936C40.8848 68.7936 41.3792 70.168 42.6208 70.2736C43.8624 70.3792 44.1888 71.5936 43.072 71.9104C41.9552 72.2272 39.0752 70.792 39.0752 70.792L39.1552 69L40.8848 68.7952V68.7936Z" fill="#FF9E1B"/>
<path d="M56.5777 68.9392C56.5777 68.9392 57.9441 69.4544 58.8305 68.5792C59.7169 67.7024 60.8513 68.2432 60.3681 69.2976C59.8833 70.352 56.9217 71.6128 56.9217 71.6128L55.3057 70.104L56.5777 68.9392Z" fill="#FF9E1B"/>
<path d="M40.7426 19.1632L37.189 18.5504C37.189 18.5504 25.3698 18.568 23.301 22.616C21.2322 26.6624 21.6674 41.7296 28.5026 54.0961L42.501 54.5008C42.501 54.5008 41.725 45.4176 44.333 40.4704C46.941 35.5232 55.0482 25.0144 40.7426 19.1616V19.1632Z" fill="#FF9E1B"/>
<path d="M28.504 54.096L35.3504 53.064C39.5856 52.4256 43.2848 55.9536 42.8464 60.2144L41.952 68.912H38.592L38.8832 60.768C38.952 58.8256 37.232 57.3008 35.3152 57.6096C32.4016 58.08 28.7904 57.8768 28.5024 54.0944L28.504 54.096Z" fill="#24285B"/>
<g opacity="0.08">
<path d="M29.7041 24.0672C29.7041 24.0672 33.5841 27.4688 32.8049 31.224C32.6785 31.8304 32.5473 32.5648 32.4161 33.3696C31.3873 39.6736 33.2433 46.1088 37.4481 50.9168L39.8929 53.712L28.5041 54.0944L27.5297 52.1872L22.2129 43.3504L29.7057 24.0672H29.7041Z" fill="#000001"/>
</g>
<path d="M23.1039 22.9888C20.5119 26.6384 18.2063 34.6976 20.2079 46.0528C20.8175 49.5088 23.7295 52.0912 27.2319 52.3136L37.9279 52.9888V49.5008L29.7999 48.3264C27.9087 48.0528 26.7087 46.16 27.2639 44.3312C28.6959 39.6176 30.9135 31.0768 30.3407 24.9888C29.9919 21.2912 25.2543 19.96 23.1039 22.9888Z" fill="#FF9E1B"/>
<g opacity="0.46">
<path d="M23.1039 22.9888C20.5119 26.6384 18.2063 34.6976 20.2079 46.0528C20.8175 49.5088 23.7295 52.0912 27.2319 52.3136L37.9279 52.9888V49.5008L29.7999 48.3264C27.9087 48.0528 26.7087 46.16 27.2639 44.3312C28.6959 39.6176 30.9135 31.0768 30.3407 24.9888C29.9919 21.2912 25.2543 19.96 23.1039 22.9888Z" fill="white"/>
</g>
<path d="M37.9282 50.3456C37.9282 50.3456 42.269 50.2352 41.6514 52.4992C41.0322 54.7632 37.9282 52.9888 37.9282 52.9888V50.3456Z" fill="#F4A28C"/>
<path d="M52.3695 53.8032L54.1231 43.8976H41.6959L40.6175 52.3408L34.9199 52.4208V53.8032H52.3695Z" fill="#FFD200"/>
<path d="M47.4225 49.8912C48.11 49.8912 48.6673 49.3339 48.6673 48.6464C48.6673 47.959 48.11 47.4016 47.4225 47.4016C46.7351 47.4016 46.1777 47.959 46.1777 48.6464C46.1777 49.3339 46.7351 49.8912 47.4225 49.8912Z" fill="white"/>
<path d="M38.1216 14.2753C38.1216 14.2753 34.7408 13.3809 35.8112 11.1345C35.8112 11.1345 34.6144 9.22726 36.6 8.25446C37.7696 7.68166 39.5024 7.37766 40.7296 7.22566C41.4704 7.13286 41.992 7.93926 41.6048 8.57926C41.0864 9.43686 40.1376 10.4001 38.44 10.6817C38.44 10.6817 39.216 12.3665 38.1216 14.2769V14.2753Z" fill="#24285B"/>
<path d="M38.9586 12.1024C38.9586 12.1024 38.6418 11.4032 38.1362 11.6848C37.6306 11.9664 38.0818 12.9792 38.8418 12.7648L38.9586 12.1024Z" fill="#F4A28C"/>
<path d="M68.8784 28.8753C68.8784 28.8753 70.2016 24.3281 71.1744 24.2641C72.1472 24.1985 71.1744 26.8593 71.1744 26.8593C71.1744 26.8593 74.7424 27.7681 71.4992 30.6225L68.8784 28.8753Z" fill="#F4A28C"/>
<path d="M46.2303 53.6496L57.1343 68.4064L55.0143 70.3744C55.0143 70.3744 45.5295 59.2992 40.4415 56.1808L38.6655 53.8016L46.2319 53.648L46.2303 53.6496Z" fill="#24285B"/>
</svg>
