<svg width="80" height="80" viewBox="0 0 80 80" fill="none" xmlns="http://www.w3.org/2000/svg">
<mask id="mask0_5678_49359" style="mask-type:alpha" maskUnits="userSpaceOnUse" x="0" y="0" width="80" height="80">
<circle cx="40" cy="40" r="40" fill="#F2F2F2"/>
</mask>
<g mask="url(#mask0_5678_49359)">
<circle cx="40" cy="40" r="40" fill="#FBF8E9"/>
<path d="M56.7793 30.7769C56.8716 31.2103 56.8531 31.6622 56.724 32.0863C56.558 32.8609 56.2168 33.5894 55.7189 34.2072C55.2117 34.825 54.4556 35.1939 53.6533 35.2216C53.5427 35.2308 53.432 35.1939 53.3582 35.1109C53.3121 35.0464 53.2937 34.9726 53.2937 34.8988C53.2384 33.7185 53.1831 31.9296 53.93 30.9429C54.6124 30.0945 56.3736 29.2923 56.7793 30.7769Z" fill="#FFB4A3"/>
<path d="M26.6533 30.7124C26.0539 31.0628 25.7035 31.7175 25.722 32.4091C25.6943 33.1191 25.9248 33.8107 26.3582 34.3732C26.7455 34.8158 27.2066 35.2031 27.7137 35.4982C28.3131 35.9593 29.0416 36.2451 29.7978 36.3189C30.0098 36.3466 30.2219 36.2636 30.3695 36.1068C30.4525 35.9777 30.4986 35.8209 30.4893 35.6642C30.5631 33.8384 29.6225 29.2831 26.6625 30.7216L26.6533 30.7124Z" fill="#FFB4A3"/>
<path d="M29.3553 33.9028C28.8665 33.9766 28.3686 33.7737 28.0827 33.368C27.6124 32.6949 27.4465 31.8742 26.8102 32.243C26.1739 32.6119 26.5889 33.9766 27.1237 34.7328C27.6585 35.4889 29.4475 36.0606 29.7518 35.5442C30.0561 35.0278 29.346 33.9121 29.346 33.9121L29.3553 33.9028Z" fill="#FFB4A3"/>
<path d="M53.3576 33.0822C53.8371 33.156 54.3166 32.9439 54.5933 32.5474C55.0728 31.8743 55.2295 31.0536 55.8658 31.4224C56.5021 31.7913 56.0964 33.156 55.5523 33.9122C55.0082 34.6683 53.2378 35.24 52.9335 34.7236C52.6292 34.2072 53.3669 33.0915 53.3669 33.0915L53.3576 33.0822Z" fill="#FFB4A3"/>
<path d="M5.02006 82.2223C5.02006 82.2223 3.79363 62.1937 20.521 53.6825C37.2484 45.1713 76.7707 52.4745 74.742 82.2223H5.02006Z" fill="#FF9E1B"/>
<path d="M34.1687 39.6293V45.5309C34.1687 48.2973 32.1677 50.6579 29.4474 51.119L25.2979 51.8106C25.2979 51.8106 31.2732 64.8218 43.7773 61.3822C56.2813 57.9427 56.8346 54.4663 56.8346 54.4663L53.8561 53.4335C51.3203 52.5483 49.6143 50.1599 49.6051 47.4766L49.5774 39.6293H34.1687Z" fill="#FFB4A3"/>
<path d="M34.1687 39.6293V45.5309C34.1687 48.2973 32.1677 50.6579 29.4474 51.119L25.2979 51.8106C25.2979 51.8106 31.2732 64.8218 43.7773 61.3822C56.2813 57.9427 56.8346 54.4663 56.8346 54.4663L53.8561 53.4335C51.3203 52.5483 49.6143 50.1599 49.6051 47.4766L49.5774 39.6293H34.1687Z" fill="url(#paint0_linear_5678_49359)"/>
<path d="M28.5532 26.9316C28.5532 26.9316 28.129 35.4521 33.1915 42.368C38.6873 49.8741 46.2949 51.2481 51.385 42.368C52.8604 39.8322 55.5715 26.2123 54.4741 21.5003C53.3768 16.7882 35.2478 3.37128 28.5532 26.9316Z" fill="#FFB4A3"/>
<path d="M26.155 20.2278C26.5423 19.9973 26.8835 19.7022 27.1786 19.361C27.4368 18.863 27.5567 18.3005 27.529 17.738C27.8149 13.9297 31.1714 11.025 34.7124 9.58644C41.0566 7.00448 48.9223 8.10181 54.0033 12.7586C55.8383 14.4368 57.4428 16.5669 59.8219 17.277C60.3106 17.3507 60.7717 17.5444 61.1682 17.8487C61.9335 18.5956 61.3618 19.9327 60.5688 20.652C60.3752 20.7995 60.2184 20.9931 60.1077 21.2144C59.8772 21.8507 60.7071 22.3856 61.3803 22.5976C60.7717 23.4183 60.0063 24.1191 59.1395 24.6448C59.5821 24.6909 59.7297 25.3271 59.4991 25.7144C59.2225 26.0648 58.8721 26.3507 58.4756 26.5536C57.369 27.3374 56.8065 28.6652 56.0965 29.8271C55.3864 30.989 54.2707 32.114 52.9244 32.031C53.7358 28.9326 53.3854 25.6499 51.9377 22.7913C45.7502 24.4603 39.2492 22.4685 33.0618 20.7718C32.6007 20.5874 32.0935 20.5874 31.6325 20.7718C30.8394 21.2329 31.0976 22.4132 31.4573 23.2524C30.6735 23.2524 30.2862 24.1929 30.1294 24.9675C29.8989 26.1109 29.7698 27.282 29.7329 28.4531C29.7329 29.154 30.2401 31.4685 29.9173 31.9572C29.2811 32.9254 28.3589 31.3855 27.7964 30.6478C26.0075 28.241 23.0751 22.7083 26.1458 20.2278H26.155Z" fill="#231F20"/>
</g>
<path d="M65.387 77.9962C71.6758 77.9962 76.7739 72.898 76.7739 66.6092C76.7739 60.3203 71.6758 55.2222 65.387 55.2222C59.0981 55.2222 54 60.3203 54 66.6092C54 72.898 59.0981 77.9962 65.387 77.9962Z" fill="#6DAC89"/>
<path d="M59.6377 67.1236L64.0224 71.5084L70.9127 61.4861" stroke="white" stroke-width="2.50556" stroke-linecap="round" stroke-linejoin="round"/>
<defs>
<linearGradient id="paint0_linear_5678_49359" x1="40.6974" y1="58.3392" x2="43.3992" y2="19.5915" gradientUnits="userSpaceOnUse">
<stop stop-color="#231F20" stop-opacity="0"/>
<stop offset="1" stop-color="#231F20"/>
</linearGradient>
</defs>
</svg>
