<svg width="74" height="27" viewBox="0 0 74 27" fill="none" xmlns="http://www.w3.org/2000/svg">
  <path
    d="M38.5182 13.5691C38.4598 13.4764 38.3603 13.4212 38.2521 13.4212H36.3923C36.265 13.4212 36.1515 13.4971 36.1041 13.6113L31.9336 22.9843L27.6807 13.5952C27.63 13.4789 27.5166 13.4035 27.3916 13.4035H25.5318C25.4247 13.4035 25.3256 13.4583 25.2675 13.5491C25.2085 13.6402 25.1998 13.7556 25.2452 13.8592L30.8304 25.9939C30.881 26.1097 30.9943 26.1844 31.1191 26.1844H32.4837H32.6778H32.7269C32.8517 26.1844 32.9648 26.1104 33.0143 25.9975L38.5414 13.871C38.5844 13.7717 38.5752 13.6586 38.5182 13.5691Z"
    fill="#451E44" />
  <path
    d="M14.4064 18.6442C14.8853 16.6923 16.5622 15.2934 18.4536 15.2934C20.3336 15.2934 22.008 16.6826 22.4943 18.6203L14.4064 18.6442ZM18.4536 13.0492C14.9806 13.0492 12.1553 16.0745 12.1553 19.7928C12.1553 23.5111 14.9806 26.5361 18.4536 26.5361C20.4594 26.5361 22.3633 25.4988 23.5463 23.7605C23.6076 23.6712 23.5861 23.5467 23.4987 23.4836L22.0606 22.4399C22.006 22.4006 21.9356 22.3915 21.8685 22.4185C21.8099 22.444 21.7665 22.4978 21.7531 22.56C20.9538 23.6612 19.7529 24.2918 18.4536 24.2918C16.4757 24.2918 14.738 22.7506 14.3505 20.6811L24.5228 20.6623C24.6247 20.6623 24.7092 20.5844 24.7193 20.4808C24.7408 20.253 24.7515 20.0213 24.7515 19.7928C24.7515 16.0745 21.9262 13.0492 18.4536 13.0492Z"
    fill="#451E44" />
  <path
    d="M41.298 18.6442C41.7767 16.6923 43.4536 15.2934 45.345 15.2934C47.2249 15.2934 48.8994 16.6826 49.3859 18.6203L41.298 18.6442ZM45.345 13.0492C41.8719 13.0492 39.0469 16.0745 39.0469 19.7928C39.0469 23.5111 41.8719 26.5361 45.345 26.5361C47.3508 26.5361 49.2549 25.4988 50.4382 23.7603C50.499 23.6705 50.4773 23.5461 50.3901 23.4836L48.9528 22.4406C48.8985 22.4006 48.8254 22.3917 48.7601 22.4185C48.7002 22.444 48.6577 22.4971 48.6445 22.56C47.8449 23.6612 46.6443 24.2918 45.345 24.2918C43.3671 24.2918 41.6291 22.7506 41.2419 20.6811L51.4139 20.6623C51.5159 20.6623 51.6006 20.5844 51.6107 20.481C51.6321 20.2544 51.6431 20.0224 51.6431 19.7928C51.6431 16.0745 48.8176 13.0492 45.345 13.0492Z"
    fill="#451E44" />
  <path
    d="M10.4515 23.7056H4.50439C3.4392 23.7056 3.39448 23.3254 3.39448 22.4652V9.69678C3.39448 9.47032 3.21315 9.28611 2.99023 9.28611H1.32694C1.10424 9.28611 0.922908 9.47032 0.922908 9.69678V22.0507C0.922908 22.1452 0.920896 22.246 0.919107 22.3578C0.903456 23.2452 0.882215 24.46 1.71084 25.3174C2.28748 25.9139 3.18922 26.2164 4.39102 26.2164H10.4515C10.6744 26.2164 10.8557 26.0322 10.8557 25.8058V24.1163C10.8557 23.8898 10.6744 23.7056 10.4515 23.7056Z"
    fill="#451E44" />
  <path
    d="M57.1305 23.8604C56.9566 23.7555 56.7193 23.6401 56.4253 23.5168C56.1836 23.4159 55.9931 23.3262 55.8594 23.2505C55.7338 23.1797 55.6255 23.0861 55.5379 22.9734C55.4543 22.8658 55.4133 22.7352 55.4133 22.5734C55.4133 22.3461 55.4898 22.1666 55.6463 22.0251C55.8035 21.8827 56.013 21.8107 56.2693 21.8107C56.5329 21.8107 56.7339 21.8857 56.8832 22.0403C57.0339 22.1966 57.1131 22.4004 57.1247 22.6604C57.1247 22.7661 57.1882 22.8342 57.2861 22.8342H57.5524C57.6508 22.8342 57.7141 22.7661 57.7141 22.6577C57.7007 22.218 57.5641 21.865 57.3085 21.6085C57.0518 21.3514 56.6961 21.2213 56.2502 21.2213C55.8366 21.2213 55.4923 21.3512 55.2264 21.6074C54.9597 21.8648 54.8246 22.1898 54.8246 22.5734C54.8246 22.861 54.8904 23.1034 55.0203 23.2937C55.1464 23.48 55.3011 23.6285 55.4795 23.7341C55.6492 23.8357 55.8813 23.9497 56.1693 24.0728C56.4124 24.177 56.5979 24.2638 56.7377 24.3401C56.8685 24.4108 56.9792 24.505 57.0664 24.6207C57.1506 24.7315 57.1913 24.8673 57.1913 25.0359C57.1913 25.2757 57.118 25.4604 56.9675 25.5992C56.8166 25.738 56.6071 25.8086 56.345 25.8086C55.717 25.8086 55.4026 25.4917 55.385 24.8423C55.385 24.7431 55.3185 24.6786 55.2141 24.6786H54.9574C54.8535 24.6786 54.7866 24.7431 54.7866 24.8462C54.8063 25.3236 54.9557 25.7062 55.2302 25.9812C55.5052 26.2576 55.8804 26.3973 56.345 26.3973C56.7587 26.3973 57.1062 26.2661 57.3778 26.0067C57.6515 25.7461 57.7901 25.4193 57.7901 25.0359C57.7901 24.7426 57.7242 24.4971 57.5945 24.3056C57.4675 24.1189 57.3114 23.9692 57.1305 23.8604Z"
    fill="#451E44" />
  <path
    d="M61.0698 23.9254V24.804C61.0698 25.1149 60.9907 25.3639 60.8346 25.5431C60.6797 25.7216 60.4704 25.8081 60.1956 25.8081C59.894 25.8081 59.6672 25.7207 59.5022 25.5415C59.3377 25.3623 59.2543 25.1138 59.2543 24.804C59.2543 24.5364 59.3357 24.3279 59.5034 24.1666C59.6697 24.0062 59.9058 23.9254 60.205 23.9254H61.0698ZM60.1956 21.2217C59.7743 21.2217 59.4278 21.3562 59.1651 21.6235C58.9039 21.8893 58.7581 22.2361 58.7313 22.6602C58.7313 22.709 58.7483 22.7524 58.7803 22.7842C58.812 22.8167 58.8545 22.8344 58.9028 22.8344H59.1595C59.2536 22.8344 59.3189 22.7713 59.3303 22.6661C59.3477 22.406 59.4338 22.1955 59.5859 22.0408C59.7383 21.8859 59.938 21.8103 60.1956 21.8103C60.4704 21.8103 60.6797 21.8954 60.8351 22.0717C60.9907 22.2468 61.0698 22.4908 61.0698 22.7947V23.3457H60.205C59.7408 23.3457 59.3627 23.4838 59.0812 23.7562C58.7988 24.0296 58.6553 24.3824 58.6553 24.804C58.6553 25.2755 58.7964 25.6621 59.0743 25.951C59.3527 26.2406 59.7299 26.3876 60.1956 26.3876C60.6426 26.3876 61.0045 26.2386 61.2706 25.9444C61.5349 25.6521 61.6688 25.2687 61.6688 24.804V22.7947C61.6688 22.3306 61.5329 21.9484 61.265 21.659C60.9963 21.3687 60.6363 21.2217 60.1956 21.2217Z"
    fill="#451E44" />
  <path
    d="M63.8168 20.9125H64.0543C64.129 20.9125 64.1885 20.8798 64.2189 20.828L64.8735 19.9028C64.9263 19.8317 64.9104 19.7727 64.8959 19.7436C64.882 19.7152 64.8451 19.6671 64.7577 19.6671H64.4348C64.3579 19.6671 64.2969 19.7045 64.2674 19.7654L63.7003 20.6774C63.6485 20.7478 63.6641 20.8069 63.6787 20.8362C63.693 20.8645 63.7301 20.9125 63.8168 20.9125Z"
    fill="#451E44" />
  <path
    d="M65.4234 21.3083H65.1665C65.0625 21.3083 64.9954 21.3725 64.9954 21.4729V24.7853C64.9954 25.1038 64.9187 25.3598 64.7674 25.5456C64.6189 25.7289 64.4105 25.8179 64.1306 25.8179C63.8502 25.8179 63.6414 25.7289 63.4929 25.5456C63.3415 25.3598 63.2653 25.1038 63.2653 24.7853V21.4729C63.2653 21.3725 63.1982 21.3083 63.0942 21.3083H62.8378C62.7338 21.3083 62.6665 21.3725 62.6665 21.4729V24.7853C62.6665 25.2491 62.8002 25.6373 63.0636 25.9383C63.3295 26.2431 63.6883 26.3973 64.1306 26.3973C64.5719 26.3973 64.931 26.2431 65.1971 25.9383C65.4605 25.6369 65.5942 25.2491 65.5942 24.7853V21.4729C65.5942 21.3725 65.5271 21.3083 65.4234 21.3083Z"
    fill="#451E44" />
  <path
    d="M69.0734 22.805V24.814C69.0734 25.1089 68.9893 25.3437 68.8162 25.5316C68.6443 25.7178 68.4301 25.8082 68.1607 25.8082C67.8854 25.8082 67.6697 25.7178 67.5015 25.532C67.3311 25.3444 67.2482 25.1095 67.2482 24.814V22.805C67.2482 22.5097 67.3311 22.2746 67.5015 22.0865C67.6699 21.901 67.8854 21.8106 68.1607 21.8106C68.4299 21.8106 68.6443 21.901 68.8162 22.087C68.9893 22.2753 69.0734 22.5099 69.0734 22.805ZM69.5011 19.3774H69.235C69.1366 19.3774 69.0734 19.4413 69.0734 19.5412V21.6345C68.9839 21.5371 68.8822 21.4549 68.7695 21.3879C68.5828 21.2772 68.378 21.2209 68.1607 21.2209C67.7202 21.2209 67.3542 21.3731 67.0724 21.6734C66.7918 21.9714 66.6494 22.3527 66.6494 22.805V24.814C66.6494 25.2665 66.7918 25.6474 67.0724 25.9452C67.3539 26.2452 67.7202 26.397 68.1607 26.397C68.5953 26.397 68.9587 26.2437 69.2402 25.9402C69.5205 25.6386 69.663 25.2595 69.663 24.814V19.5412C69.663 19.4413 69.5995 19.3774 69.5011 19.3774Z"
    fill="#451E44" />
  <path
    d="M71.3163 23.6744V22.8149C71.3163 22.5098 71.3973 22.2627 71.5562 22.0803C71.7148 21.8991 71.9319 21.8107 72.2196 21.8107C72.4949 21.8107 72.7091 21.8995 72.8745 22.0819C73.0413 22.2666 73.1227 22.4935 73.1227 22.7763C73.1227 23.0504 73.0411 23.2633 72.873 23.4282C72.7064 23.5913 72.4642 23.6744 72.153 23.6744H71.3163ZM73.531 24.6688H73.2745C73.1706 24.6688 73.1033 24.7331 73.1035 24.8296C73.0916 25.1231 73.0062 25.3632 72.8493 25.5433C72.6939 25.7218 72.4848 25.8086 72.21 25.8086C71.9229 25.8086 71.7076 25.7205 71.5522 25.5388C71.3957 25.3566 71.3163 25.1126 71.3163 24.8142V24.2634H72.153C72.6297 24.2634 73.0143 24.1234 73.296 23.8479C73.5782 23.5713 73.7213 23.211 73.7213 22.7763C73.7213 22.3368 73.5806 21.9656 73.3029 21.6726C73.0241 21.3794 72.6597 21.231 72.2196 21.231C71.7722 21.231 71.4058 21.3819 71.1307 21.6787C70.8564 21.9738 70.7178 22.3554 70.7178 22.8149V24.8142C70.7178 25.2784 70.8535 25.661 71.1211 25.9503C71.3901 26.2406 71.7564 26.3876 72.21 26.3876C72.6503 26.3876 73.01 26.2424 73.2792 25.9551C73.5469 25.6698 73.6891 25.2932 73.7023 24.8335C73.7023 24.7331 73.6352 24.6688 73.531 24.6688Z"
    fill="#451E44" />
  <path
    d="M51.4698 7.51117C48.5134 2.93771 43.4145 0.0966452 38.1625 0.0966452C32.9106 0.0966452 27.8114 2.93771 24.8551 7.51117C24.6771 7.78624 24.7006 8.09606 24.9107 8.24779C24.9729 8.29231 25.0644 8.33819 25.1791 8.33819C25.3224 8.33819 25.5017 8.2671 25.7052 8.03405C28.9077 4.36869 33.4483 2.26651 38.1625 2.26651C42.8763 2.26651 47.4169 4.36869 50.6197 8.03405C50.9864 8.4538 51.2752 8.34841 51.4139 8.24779C51.6238 8.09606 51.6477 7.78624 51.4698 7.51117Z"
    fill="#FC4C02" />
</svg>